<svg xmlns="http://www.w3.org/2000/svg" xmlns:xlink="http://www.w3.org/1999/xlink" x="0px" y="0px" viewBox="0 0 512 512" width="512px" height="512px">
    <g>
        <g>
            <path d="M197.157,110.661c-0.05-0.001-0.099-0.001-0.149-0.001c-5.519,0-9.896,4.35-9.994,9.966    c-0.099,5.668,4.201,10.199,9.79,10.314c0.073,0.002,0.145,0.003,0.218,0.003c5.486,0,9.856-4.31,9.99-9.902    c0.001-0.043,0.002-0.087,0.002-0.13C207.076,115.242,202.746,110.74,197.157,110.661z" fill="#9cd26e"/>
        </g>
    </g>
    <g>
        <g>
            <path d="M390.003,0.007h-80.998c-43.776,0-84.432,23.658-106.101,61.743c-2.461,4.325-4.676,8.845-6.585,13.433    c-2.121,5.1,0.293,10.953,5.392,13.074c5.098,2.117,10.953-0.294,13.074-5.393c1.595-3.833,3.446-7.609,5.502-11.224    c18.123-31.849,52.118-51.635,88.719-51.635h80.998C446.245,20.005,492,65.761,492,122.003c0,22.149-6.979,43.214-20.182,60.917    c-1.288,1.727-1.984,3.824-1.984,5.979v42.96l-18.78-18.779c-3.148-3.147-7.998-3.836-11.898-1.687    C424.191,219.64,407.195,224,390.003,224h-6c-5.523,0-10,4.478-10,10s4.477,10,10,10h6c18.015,0,35.856-4.007,52.049-11.642    l30.711,30.712c1.914,1.913,4.471,2.929,7.074,2.929c1.288,0,2.587-0.249,3.824-0.761c3.737-1.548,6.173-5.194,6.173-9.239V192.14    C504.347,171.539,512,147.363,512,122.003C512,54.734,457.272,0.007,390.003,0.007z" fill="#9cd26e"/>
        </g>
    </g>
    <g>
        <g>
            <path d="M287.98,152.003H64.011C28.715,152.003,0,180.717,0,216.013v151.971c0,31.894,23.449,58.416,54.012,63.23v70.778    c0,4.045,2.437,7.691,6.173,9.239c1.237,0.512,2.536,0.761,3.824,0.761c2.603,0,5.161-1.016,7.074-2.929l77.069-77.069H287.98    c35.296,0,64.011-28.715,64.011-64.011v-151.97C351.991,180.717,323.276,152.003,287.98,152.003z M331.992,363.997h-92.485    c-5.523,0-10,4.478-10,10c0,5.522,4.477,10,10,10h89.456c-6.419,16.372-22.363,28-40.983,28h-143.97    c-2.652,0-5.196,1.054-7.071,2.929l-62.927,62.927v-55.856c0-5.522-4.477-10-10-10C39.743,411.996,20,392.252,20,367.985V216.013    c0-24.268,19.743-44.012,44.012-44.012H287.98c24.268,0,44.012,19.743,44.012,44.012V363.997z" fill="#9cd26e"/>
        </g>
    </g>
    <g>
        <g>
            <path d="M87.998,259.5c-17.645,0-31.999,14.355-31.999,31.999s14.355,31.999,31.999,31.999c17.645,0,31.999-14.355,31.999-31.999    S105.642,259.5,87.998,259.5z M87.998,303.499c-6.617,0-12-5.383-12-12s5.383-12,12-12c6.617,0,12,5.383,12,12    S94.615,303.499,87.998,303.499z" fill="#9cd26e"/>
        </g>
    </g>
    <g>
        <g>
            <path d="M175.996,259.5c-17.645,0-31.999,14.355-31.999,31.999s14.355,31.999,31.999,31.999c17.645,0,31.999-14.356,31.999-31.999    C207.995,273.855,193.64,259.5,175.996,259.5z M175.996,303.499c-6.617,0-12-5.383-12-12s5.383-12,12-12s12,5.383,12,12    S182.612,303.499,175.996,303.499z" fill="#9cd26e"/>
        </g>
    </g>
    <g>
        <g>
            <path d="M263.993,259.5c-17.645,0-31.999,14.355-31.999,31.999s14.355,31.999,31.999,31.999s31.999-14.355,31.999-31.999    S281.638,259.5,263.993,259.5z M263.993,303.499c-6.617,0-12-5.383-12-12s5.383-12,12-12s12,5.383,12,12    S270.61,303.499,263.993,303.499z" fill="#9cd26e"/>
        </g>
    </g>
    <g>
        <g>
            <path d="M209.078,366.928c-1.86-1.86-4.44-2.93-7.08-2.93c-2.63,0-5.21,1.069-7.07,2.93c-1.86,1.861-2.93,4.44-2.93,7.07    s1.07,5.21,2.93,7.069c1.86,1.86,4.44,2.931,7.07,2.931c2.64,0,5.22-1.07,7.08-2.931c1.86-1.859,2.93-4.439,2.93-7.069    S210.938,368.788,209.078,366.928z" fill="#9cd26e"/>
        </g>
    </g>
</svg>