<?xml version="1.0" encoding="iso-8859-1"?>
<!-- Generator: Adobe Illustrator 19.0.0, SVG Export Plug-In . SVG Version: 6.00 Build 0)  -->
<svg version="1.1" id="Capa_1" xmlns="http://www.w3.org/2000/svg" xmlns:xlink="http://www.w3.org/1999/xlink" x="0px" y="0px"
	 viewBox="0 0 382.293 382.293" style="enable-background:new 0 0 382.293 382.293;" xml:space="preserve">
<g>
	<g>
		<path d="M361.813,122.88H20.48c-3.768,0-6.827,3.058-6.827,6.827v218.952c0,18.548,15.087,33.635,33.635,33.635h287.717
			c18.548,0,33.635-15.087,33.635-33.635V129.707C368.64,125.938,365.582,122.88,361.813,122.88z M354.99,348.658
			c0,11.018-8.963,19.982-19.982,19.982H47.288c-11.018,0-19.982-8.963-19.982-19.982V136.533H354.99V348.658z"/>
	</g>
</g>
<g>
	<g>
		<path d="M116.053,0c-11.295,0-20.48,9.185-20.48,20.48v40.96c0,11.295,9.185,20.48,20.48,20.48c11.295,0,20.48-9.185,20.48-20.48
			V20.48C136.533,9.185,127.348,0,116.053,0z M122.88,61.44c0,3.765-3.062,6.827-6.827,6.827s-6.827-3.062-6.827-6.827V20.48
			c0-3.765,3.062-6.827,6.827-6.827s6.827,3.062,6.827,6.827V61.44z"/>
	</g>
</g>
<g>
	<g>
		<path d="M266.24,0c-11.295,0-20.48,9.185-20.48,20.48v40.96c0,11.295,9.185,20.48,20.48,20.48c11.295,0,20.48-9.185,20.48-20.48
			V20.48C286.72,9.185,277.535,0,266.24,0z M273.067,61.44c0,3.765-3.062,6.827-6.827,6.827s-6.827-3.062-6.827-6.827V20.48
			c0-3.765,3.062-6.827,6.827-6.827s6.827,3.062,6.827,6.827V61.44z"/>
	</g>
</g>
<g>
	<g>
		<path d="M159.502,200.544c-1.468-1.877-3.413-2.816-5.847-2.816c-2.154,0-3.618,0.413-4.393,1.236
			c-0.782,0.826-2.454,3.024-5.021,6.598c-2.567,3.574-5.506,6.803-8.834,9.69c-3.321,2.888-7.755,5.635-13.295,8.247
			c-3.71,1.744-6.298,3.164-7.765,4.263c-1.468,1.099-2.202,2.816-2.202,5.154c0,2.017,0.737,3.796,2.232,5.328
			c1.488,1.536,3.195,2.304,5.12,2.304c4.035,0,11.868-4.468,23.508-13.404v62.539c0,3.666,0.85,6.441,2.543,8.315
			c1.693,1.881,3.942,2.816,6.734,2.816c6.281,0,9.421-4.605,9.421-13.814v-78.691C161.703,205.012,160.969,202.424,159.502,200.544
			z"/>
	</g>
</g>
<g>
	<g>
		<path d="M262.38,285.082c-1.877-1.468-4.605-2.202-8.178-2.202h-35.874c1.147-1.741,2.266-3.229,3.376-4.468
			c2.567-3.116,7.301-7.489,14.193-13.128c6.892-5.639,11.807-9.772,14.739-12.404c2.932-2.635,5.806-6.277,8.625-10.93
			c2.819-4.649,4.226-9.813,4.226-15.497c0-3.618-0.676-7.113-2.028-10.479s-3.239-6.332-5.673-8.899
			c-2.427-2.563-5.246-4.577-8.448-6.048c-4.953-2.198-10.933-3.297-17.94-3.297c-5.82,0-10.892,0.86-15.227,2.577
			c-4.328,1.717-7.902,3.977-10.721,6.769c-2.813,2.792-4.932,5.912-6.352,9.346c-1.42,3.434-2.133,6.731-2.133,9.895
			c0,2.611,0.761,4.676,2.266,6.185c1.512,1.512,3.413,2.27,5.707,2.27c2.611,0,4.594-0.829,5.946-2.475
			c1.345-1.649,2.56-4.011,3.639-7.079c1.075-3.069,1.847-4.949,2.301-5.635c3.437-5.267,8.158-7.902,14.159-7.902
			c2.84,0,5.468,0.642,7.868,1.925c2.406,1.28,4.308,3.079,5.707,5.393c1.399,2.314,2.092,4.939,2.092,7.871
			c0,2.703-0.645,5.465-1.952,8.281c-1.307,2.819-3.208,5.567-5.707,8.247c-2.499,2.68-5.625,5.352-9.38,8.008
			c-2.106,1.42-5.612,4.39-10.513,8.899c-4.908,4.516-10.407,9.933-16.5,16.254c-1.468,1.56-2.816,3.703-4.055,6.427
			c-1.232,2.727-1.853,4.915-1.853,6.564c0,2.567,0.963,4.799,2.888,6.7c1.925,1.905,4.605,2.854,8.038,2.854h50.582
			c3.024,0,5.277-0.782,6.772-2.338c1.485-1.557,2.232-3.461,2.232-5.704C265.199,288.543,264.257,286.549,262.38,285.082z"/>
	</g>
</g>
<g>
	<g>
		<path d="M251.447,34.133H134.26c-3.768,0-6.827,3.058-6.827,6.827s3.058,6.827,6.827,6.827h117.187
			c3.772,0,6.827-3.058,6.827-6.827S255.215,34.133,251.447,34.133z"/>
	</g>
</g>
<g>
	<g>
		<path d="M361.813,34.133h-78.51c-3.768,0-6.827,3.058-6.827,6.827s3.058,6.827,6.827,6.827h71.683v75.093H27.307V47.787h71.68
			c3.768,0,6.827-3.058,6.827-6.827s-3.058-6.827-6.827-6.827H20.48c-3.768,0-6.827,3.058-6.827,6.827v88.747
			c0,3.768,3.058,6.827,6.827,6.827h341.333c3.768,0,6.827-3.058,6.827-6.827V40.96C368.64,37.192,365.582,34.133,361.813,34.133z"
			/>
	</g>
</g>
<g>
</g>
<g>
</g>
<g>
</g>
<g>
</g>
<g>
</g>
<g>
</g>
<g>
</g>
<g>
</g>
<g>
</g>
<g>
</g>
<g>
</g>
<g>
</g>
<g>
</g>
<g>
</g>
<g>
</g>
</svg>
